/* XPM */
static char * Emacs_xpm[] = {
"16 16 9 1",
" 	c None",
".	c #FFFFFF",
"+	c #000000",
"@	c #FFFFFF",
"#	c #A0A0A0",
"$	c #C3C3C3",
"%	c #808080",
"&	c #585858",
"*	c #303030",
"  +*++      ++# ",
" +*           + ",
"++#   ++ ++   ++",
"++   +++++++  ++",
"+++++@#@#&%#+++ ",
" +++@@@#@@#@++# ",
"  +#@@@+@@+@+   ",
"  +@@$@@$$@+    ",
"  +&$@@@$&+.    ",
"   +@$@@@@@+    ",
"   +@@@@###+    ",
"    +@+@@%%     ",
"     +@+@$+     ",
"      +.+$+     ",
"         +      ",
"                "};
